# xmcd CD database file
#
# Track frame offsets:
#	150
#	12259
#	27519
#	46698
#	61613
#	74667
#	87033
#	102248
#	117997
#	134301
#	148628
#	164760
#	177351
#	199776
#
# Disc length: 2918 seconds
#
# Revision: 2
# Processed by: cddbd v1.5.2PL0 Copyright (c) Steve Scherf et al.
# Submitted via: Feurio! 1.67 - http://www.feurio.com
#
DISCID=c20b640e
DTITLE=Matt Walsh and Christian Bleiming - Mc Shuffle
DYEAR=2011
DGENRE=Blues
TTITLE0=Mc Shuffle
TTITLE1=Gold Train
TTITLE2=Ask Me Where I've Been
TTITLE3=King Of The Jungle
TTITLE4=Trouble In MInd
TTITLE5=Coldfinger
TTITLE6=CC Rider
TTITLE7=Checking Out
TTITLE8=You Can't Trust Your Neighbour
TTITLE9=Some Day, Some Way
TTITLE10=St. James Infirmary
TTITLE11=Polk Salad Annie
TTITLE12=Refer Smoker
TTITLE13=One Last Favour
EXTD=
EXTT0=
EXTT1=
EXTT2=
EXTT3=
EXTT4=
EXTT5=
EXTT6=
EXTT7=
EXTT8=
EXTT9=
EXTT10=
EXTT11=
EXTT12=
EXTT13=
PLAYORDER=
